<?xml version="1.0" encoding="utf-8"?>
<!DOCTYPE svg PUBLIC "-//W3C//DTD SVG 1.1//EN" "http://www.w3.org/Graphics/SVG/1.1/DTD/svg11.dtd">
<svg version="1.1" xmlns="http://www.w3.org/2000/svg" xmlns:xlink="http://www.w3.org/1999/xlink" fill="#FFFFFF" x="0px" y="0px" viewBox="0 0 1000 1000" enable-background="new 0 0 1000 1000" xml:space="preserve">
<g><path d="M10,500.6C10,771.9,228.1,990,499.4,990C770.1,990,990,771.9,990,500.6C990,229.9,770.1,10,499.4,10C228.1,10,10,229.9,10,500.6L10,500.6z M276.9,923c0,0-9.4,0-25.1-8.8v-6.9h-16.3l-25.7-25.1c0,0-15-8.2-24.4-17.6c-8.2-7.5-15-16.9-23.2-26.3l-18.2-15c-25.1-32.6-32.6-32.6-49.5-57h6.3c-3.8-5-8.1-14.4-13.8-25.1l-7.5-16.3l-9.4-8.1l-8.8-17.5v-6.9l-7.5-8.1c-8.8-26.3-16.9-50.8-16.9-66.4l-7.5-15.7c0-50.8-8.8-50.8-8.8-83.3c0-16.3,0-41.4,8.8-57v65.2c0,32.6,0,57,7.5,57v-81.5h8.2c0,7.5,0,7.5,8.8,16.3c6.9,13.1,10.7,20.7,12.5,26.3c3.8-6.9,3.8-12.5,3.8-18.2c9.4-16.9,9.4-24.4,16.9-32.6v-25.1H53.9c-8.8-24.4,0-58.3,16.3-75.8c0-6.9,9.4-15,16.9-15v8.1c7.5,6.9,7.5,15.7,7.5,24.4v26.3c7.5,0,7.5,0,7.5-18.2c24.4-57.6,24.4-57.6,24.4-65.2h9.4c8.2,0,17.6,7.5,34.5,7.5c6.9,7.5,6.9,16.9,6.9,25.1c-6.9,6.9-6.9,6.9-23.8,15.7c-17.6,16.9-26.9,35.1-17.6,50.1c0,16.9,17.6,25.1,26.3,25.1c15,0,23.2-15.7,23.2-15.7c9.4-16.9,9.4-24.4,9.4-33.8c-9.4-16.9,0-25.7,0-34.5h15c9.4,0,17.6,8.8,25.7,17.5l16.3,16.9c-7.5,9.4-7.5,9.4-7.5,16.9c-8.8,7.5-8.8,16.9-16.9,16.9c-8.2,15.7-8.2,23.2-8.2,32.6c-9.4,15.7,0,15.7,0,24.4c8.2,0,16.3-8.8,25.1-8.8c7.5-7.5,7.5-7.5,15.7-7.5c7.5,0,16.9,7.5,16.9,7.5c7.5,16.9,15,41.4,7.5,57.6c-7.5,16.3-16.9,34.5-32.6,34.5c-7.5,0-16.3-9.4-24.4-25.7c-8.2-16.9-17.6-25.1-17.6-25.1h-7.5c0,0-7.5,8.2-7.5,16.3v65.8h7.5c16.9,0,33.2,8.1,57.6,8.1c7.5,6.3,16.9,32-8.2,42.6c-7.5,8.1-7.5,15-7.5,23.8c0,25.7,32.6,41.4,47.6,41.4c17.6,0,25.1,0,25.1-8.1l10-7.5c0-8.8-10-16.9-10-34.5c-15.7-15-15.7-15-15.7-25.7c0-7.5,0-7.5,8.1-7.5h7.5c10,0,18.2,0,35.1,7.5c7.5,10.7,23.8,10.7,31.3,18.8v6.9c15-41.4,15-41.4,25.1-65.8c0-15.7,0-23.2-10-23.2c-6.9,0-6.9,0-22.6,7.5c-8.8,7.5-16.3,7.5-23.8,7.5h-8.8c-16.3-7.5-26.3-23.2-26.3-41.4c0-24.4,18.2-49.5,35.1-49.5h7.5c7.5,0,16.3,8.8,23.8,16.9c11.9,25.1,33.8,35.7,33.8,0c0-16.9,7.5-48.9,0-66.4c16.9-7.5,32.6-7.5,50.1-7.5h6.9c17.6,0,25.1,0,25.1,16.9c0,8.2-7.5,15.7-16.9,24.4c-8.2,8.1-15,15.7-15,24.4c0,8.1,0,16.3,6.9,24.4c8.2,8.8,25.1,16.3,32.6,16.3c16.9,0,25.1-7.5,32.6-16.3c8.8-8.1,8.8-8.1,8.8-16.3c0-16.9,0-24.4-8.8-24.4c-7.5-16.9-7.5-24.4-7.5-32.6c0-9.4,0-9.4,16.3-9.4c8.8,0,51.4,0,58.9,17.6h8.1c-15.7,40.7-15.7,40.7-15.7,65.2c0,25.1,7.5,25.1,7.5,25.1c8.1,0,16.9-8.8,25.7-16.3c6.9-8.8,14.4-16.9,23.8-16.9h7.5c25.1,8.1,33.2,24.4,33.2,58.3c0,0-8.1,31.3-40.7,40.1c-16.9,0-23.8-8.8-32.6-16.3c0-8.1-8.8-16.3-16.9-16.3c-7.5,0-16.9,0-16.9,23.8c0,35.1,9.4,50.1,9.4,67.7c7.5-8.8,24.4-8.8,40.1-17.6h42c7.5,0,7.5,0,7.5,8.8c0,0,0,8.8-16.9,25.7c-8.1,7.5-15.7,15.7-15.7,23.8c0,8.8,0,15.7,7.5,15.7c8.1,8.8,17.5,8.8,25.1,8.8c17.5,0,32.6-8.8,40.1-15.7c9.4-8.8,9.4-16.9,9.4-16.9c8.2-8.1,0-15.7,0-24.4c-16.9-8.1-16.9-16.9-16.9-25.7c0,0,0-6.9,16.9-15h40.7c16.3,0,16.3,0,23.8,8.1h-7.5v6.9c-16.3,42-24.4,67-16.3,67v6.9c8.8-6.9,16.3-6.9,23.8-23.8c17.6-8.1,24.4-15.7,33.2-15.7l10,7.5c0,8.1,0,16.3-10,32c0,8.8-15.7,25.7-33.2,33.2c0,0,0,9.4-7.5,9.4l-7.5-9.4c-8.8-7.5-8.8-7.5-16.9-7.5c-15.7,7.5-24.4,58.3-24.4,58.3c0,7.5-17.5,16.9-57.6,25.1h-15.7c8.1-3.1,8.8-10.7,23.8-25.1c9.4-9.4,16.9-9.4,16.9-18.8c7.5-6.9,7.5-6.9,0-15c0,0-7.5-7.5-16.9-7.5c-15.7,0-33.2,7.5-40.7,15.7c-16.9,6.9-16.9,16.3-16.9,16.3c-6.9,9.4,0,16.9,0,16.9c7.5,9.4,7.5,17.6,7.5,17.6c0,7.5-14.4,7.5-14.4,7.5h-59.5L539.5,923v8.1h8.8c0,0,8.8,0,25.1-8.1c8.8-8.8,26.3-8.8,33.8-8.8c0,0,8.1,0,8.1,8.8c8.8,0,8.8,8.1,0,8.1v8.2c-8.1,8.1-25.1,16.9-42,16.9c-8.8,0-16.3,0-16.3-8.8h-17.5c0,0-7.5,0-7.5,8.8c-8.1,7.5-8.1,7.5-8.1,16.3c0,0,8.1,0,49.5-8.8h8.8v8.8H557c0,0-8.8,8.8-17.5,8.8h-97.7c0,0-16.9-8.8-33.2-8.8h-10c0,0-6.9,0-6.9-8.8h-24.4c0,0,0-7.5-7.5-7.5l-16.3-8.8h8.8c7.5,0,31.3,8.8,39.5,8.8c6.9,0,6.9,0,0-16.9c0,0,0-8.2-8.1-8.2c-7.5,0-7.5,0-16.3,8.2h-15c-16.9-8.2-35.1-25.1-35.1-32c0-8.2,0-8.2,10-17.6h16.3c8.8,9.4,16.3,9.4,16.3,17.6c16.3,6.9,23.8,6.9,23.8,6.9h8.1v-6.9c0-8.2-5.6-25.1-13.8-42.6h63.9c15.7,9.4,15.7,9.4,15.7,17.6c0,0-7.5,7.5-15.7,7.5c-7.5,9.4-7.5,9.4-7.5,17.6c0,15.7,23.2,15.7,40.1,15.7c17.6,0,25.1,0,32.6-8.8c0-6.9,0-6.9-7.5-15c-7.5-9.4-7.5-16.9-7.5-16.9c0-8.2,0-8.2,15-8.2c20.7,0,41.4,8.2,57.6,8.8v-0.6c25.7-25.1,35.1-43.9,35.1-50.8l-9.4-8.2c-8.1,0-16.9,8.2-25.7,8.2c-7.5,6.9-25.1,16.3-32.6,16.3c0,0-8.1,0-16.3-9.4c-8.8,0-8.8-6.9-16.3-15c0-16.9,0-24.4,7.5-41.4c8.8-8.8,16.9-15.7,32.6-15.7c8.8,0,17.5,6.9,25.1,15.7c17.6,8.8,25.7,8.8,25.7,16.9c9.4-8.2,9.4-8.2,16.9-8.2c8.1-24.4,0-65.8-7.5-73.9c-9.4,8.1-42.6,16.9-60.1,16.9c-15.7,0-23.8-8.8-32.6-8.8V708c8.8-8.8,16.9-15.7,25.1-15.7c7.5-8.1,7.5-18.8,7.5-26.3c0-32.6-23.8-40.7-40.1-40.7c-16.9,0-32,8.2-32,8.2c-10,8.1-17.5,15.7-17.5,24.4c0,8.1,7.5,26.3,7.5,26.3c16.9,15,16.9,23.8,16.9,32.6c0,8.1-6.9,8.1-16.9,8.1c0,0-48.9-8.1-73.9-25.7c0,0-23.8,50.1-16.3,67c0,6.9,8.8,6.9,8.8,6.9c7.5,0,15.7,0,22.6-6.9c10-8.8,18.8-8.8,26.3-8.8c9.4,0,25.1,8.8,32.6,15.7c10,8.8,10,25.7,0,42.6c0,0-7.5,22.5-32.6,22.5v-6.9c-16.3,0-26.3-8.2-33.2-8.2c0-7.5-8.1-16.9-15.7-16.9h-8.8c-7.5,16.9,8.8,58.3,8.8,58.3c0,9.4-8.8,9.4-8.8,9.4c-15,0-23.8-9.4-50.1-9.4c-7.5,0-15.7-7.5-15.7-7.5c0-9.4,0-18.8,8.1-18.8h7.5c0-6.9,10-6.9,10-15c-10-24.4-42.6-41.4-59.5-41.4c-7.5,0-15.7,0-15.7,8.8c-7.5,0-7.5,8.2-7.5,8.2c7.5,7.5,7.5,16.9,15.7,24.4c16.9,15,16.9,15,16.9,24.4H260c-15.7-9.4-32.6-16.3-50.1-31.9c0-49.5,0-58.3-15-66.4c-6.9,1.3,1.3,13.8-17.6,8.2c-6.9,0-15,0-23.8-8.2c-17.6-15.7-26.9-41.4-17.6-57c0-18.8,8.2-18.8,8.2-18.8c9.4,0,18.2,10.7,33.2,18.8v6.9c8.2,8.8,17.6,17.6,17.6,25.7c7.5,0,7.5,0,7.5-8.1c7.5-8.8-7.5-75.2-7.5-75.2h-9.4c-15,0-41.4-8.1-49.5-23.8c-9.4-7.5-9.4-7.5,0-15.7c0-9.4,8.2-9.4,8.2-18.2c9.4,0,9.4-7.5,18.2-16.3c0-16.3-8.8-33.2-18.2-40.7c-8.2-8.1-17.6-16.9-25.1-16.9c0,0-7.5,0-7.5,8.8c-16.9,8.1-9.4,32.6-9.4,40.7c9.4,16.9,9.4,33.2,9.4,42.6h-9.4c-15-9.4-32-42.6-40.7-50.8c0,16.3-7.5,66.4,0,82.1h8.8v-8.2h9.4c15,0,32,40.7,32,67c0,6.9,0,15.7-9.4,24.4l-7.5-8.8c-7.5,0-15-15.7-15-23.8c0-10.7-9.4-18.2-9.4-18.2h-8.8c0,7.5,18.2,42,33.2,67.7c0,7.5,0,7.5,24.4,23.8c7.5,0,7.5,8.8,16.9,15.7v8.8c-9.4,8.8,0,16.9,8.2,24.4c9.4,16.9,33.2,32,41.4,32v-6.9c-8.2,0-8.2-8.2-15-25.1c-16.9-7.5-16.9-15.7-16.9-24.4v-3.8c0,1.3,1.9,3.8,8.8,3.8c15,8.8,40.1,24.4,47.6,33.8v22.5c0,9.4,9.4,9.4,9.4,18.8c0,7.5,8.2,7.5,8.2,16.9h8.1l8.8-9.4h7.5c15.7,0,40.1,25.1,40.1,42.6v6.9h-15c-9.4-6.9-9.4-6.9-16.9-6.9l-15.7-17.6v9.4C251.9,899.1,260,914.2,276.9,923L276.9,923z M656.6,956.2h-16.9c16.9-5,25.7-11.9,35.1-17.6c-1.2,0.6-2.5,0-2.5,0.6c-8.1,0-15.7,8.1-25.1,8.1h-7.5v-16.3c0,0,16.9-16.9,49.5-23.8h17.5v6.9c7.5,0,15-15,22.6-15c17.6-25.1,17.6-34.5,17.6-34.5c8.8-7.5,16.3-16.9,48.9-33.2h7.5v6.9c0,9.4-7.5,9.4-15,26.3c-16.9,9.4-16.9,9.4-25.1,17.6v7.5c8.1,0,25.1-15.7,48.9-32.6c0,0,8.8-9.4,8.8-18.8v-6.9l15.7-15.7c18.2-9.4,18.2-9.4,26.3-9.4c-8.2,9.4-16.3,25.1-26.3,32c-8.8,0-8.8,9.4-8.8,9.4c-6.9,9.4-15.7,9.4-24.4,16.9c-7.5,9.4-32,25.1-47.6,42.6h-8.8c-32.6,23.8-32.6,23.8-57.6,32C672.3,947.4,664.2,947.4,656.6,956.2L656.6,956.2z M903.5,741.2c-6.9,0-6.9,8.1-16.3,16.3l-15.7,15.7c0,0,0,8.8-8.8,8.8v-8.8c-8.2-6.9,16.3-56.4,24.4-73.9c9.4,0,16.3-6.9,16.3,0l8.1,8.8c8.2-15.7,17.6-66.4,17.6-82.7l15-23.2c0-9.4,8.8-9.4,8.8-18.2v-3.8c0,1.3,3.1,3.8,8.8,3.8c0,8.8-8.8,18.2-8.8,41.4c-8.8,8.2-8.8,16.3-8.8,23.8c-7.5,8.8-7.5,16.9-7.5,16.9h7.5c-7.5,7.5-7.5,26.3-15,33.2v8.8c-9.4,8.8-9.4,16.9-17.6,25.7l-8.1,23.8c-3.8,0-5.6,0-6.9,2.5C901.6,750.6,903.5,745,903.5,741.2L903.5,741.2z M36.9,419.2v-25.7c0-6.9,0-6.9,8.2-6.9V369c8.8-40.1,25.1-73.9,34.5-89.6c7.5-7.5,7.5-16.9,15-24.4c7.5-9.4,16.9-17.5,16.9-25.1c5,0,6.3,0,7.5-2.5v2.5c-7.5,7.5-7.5,7.5-7.5,15.7c-9.4,9.4-9.4,16.9-9.4,16.9c-7.5,9.4-7.5,16.9-15,25.1c0,0-7.5,7.5-7.5,16.3c-7.5,11.9-13.2,18.8-16.3,26.3c1.3-1.3,3.1-1.3,6.9-1.3c9.4,8.2-16.3,73.3-16.3,73.3C45.1,419.2,45.1,419.2,36.9,419.2L36.9,419.2z M896.6,761.3v5c-9.4,15.7-17.5,24.4-25.1,32.6l-8.8,7.5c0,0,0-6.3,5.6-7.5C880.3,782.6,887.9,771.9,896.6,761.3L896.6,761.3z M111.5,782h0.6c0-1.2-0.6-2.5-1.9-3.8C111.5,779.5,111.5,780.7,111.5,782L111.5,782z M102.1,766.3c0,0,1.3,1.3,1.3,2.5c-1.3,0-1.3-1.2-2.5-2.5H102.1z M686.7,933c-1.3,0-2.5,0.6-5,2.5C682.3,933.6,685.5,933,686.7,933L686.7,933z M681.7,935.5c-1.9,0-3.1,1.3-6.9,3.1C677.3,936.7,679.8,936.7,681.7,935.5z"/></g>
</svg>